<svg width="18" height="20" viewBox="0 0 18 20" fill="none" xmlns="http://www.w3.org/2000/svg">
<path d="M16.25 7.4999C15.5625 7.4999 15 8.0624 15 8.7499V13.7499C15 14.4374 15.5625 14.9999 16.25 14.9999C16.9375 14.9999 17.5 14.4374 17.5 13.7499V8.7499C17.5 8.0624 16.9375 7.4999 16.25 7.4999ZM1.25 7.4999C0.5625 7.4999 0 8.0624 0 8.7499V13.7499C0 14.4374 0.5625 14.9999 1.25 14.9999C1.9375 14.9999 2.5 14.4374 2.5 13.7499V8.7499C2.5 8.0624 1.9375 7.4999 1.25 7.4999ZM3.125 14.3749C3.125 15.4105 3.96438 16.2499 5 16.2499V18.7499C5 19.4374 5.5625 19.9999 6.25 19.9999C6.9375 19.9999 7.5 19.4374 7.5 18.7499V16.2499H10V18.7499C10 19.4374 10.5625 19.9999 11.25 19.9999C11.9375 19.9999 12.5 19.4374 12.5 18.7499V16.2499C13.5356 16.2499 14.375 15.4105 14.375 14.3749V7.4999H3.125V14.3749ZM14.34 6.2499C14.15 4.53365 13.1875 3.05053 11.8081 2.15553L12.4337 0.904903C12.5881 0.596153 12.4631 0.220528 12.1544 0.0661526C11.8456 -0.0882224 11.47 0.0367776 11.3156 0.345528L10.6881 1.60115L10.525 1.53615C9.96688 1.35053 9.37 1.2499 8.75 1.2499C8.13 1.2499 7.53312 1.35053 6.975 1.53615L6.81188 1.60115L6.18438 0.345528C6.03 0.0367776 5.65438 -0.0882224 5.34563 0.0661526C5.03688 0.220528 4.91187 0.596153 5.06625 0.904903L5.69188 2.15553C4.3125 3.05115 3.35 4.53365 3.16 6.2499V6.8749H14.375V6.2499H14.34ZM6.875 4.9999C6.53 4.9999 6.25 4.7199 6.25 4.3749C6.25 4.0299 6.52938 3.75053 6.87375 3.7499H6.87687C7.22125 3.75053 7.50063 4.0299 7.50063 4.3749C7.50063 4.7199 7.22063 4.9999 6.87563 4.9999H6.875ZM10.625 4.9999C10.28 4.9999 10 4.7199 10 4.3749C10 4.0299 10.2787 3.75053 10.6237 3.7499H10.6269C10.9713 3.75053 11.2506 4.0299 11.2506 4.3749C11.2506 4.7199 10.9706 4.9999 10.6256 4.9999H10.625Z" fill="#1B6758"/>
</svg>
