<svg width="17" height="20" viewBox="0 0 17 20" fill="none" xmlns="http://www.w3.org/2000/svg">
<path d="M14.6 13.08C15.1467 13.8533 15.7733 14.3533 16.48 14.58C16.1733 15.5267 15.6867 16.5133 15.02 17.54C13.9933 19.0867 12.98 19.86 11.98 19.86C11.6067 19.86 11.0533 19.7333 10.32 19.48C9.64 19.2267 9.04667 19.1 8.54 19.1C8.03333 19.1 7.47333 19.2333 6.86 19.5C6.22 19.7533 5.69333 19.88 5.28 19.88C4.08 19.88 2.9 18.86 1.74 16.82C0.58 14.8067 0 12.8267 0 10.88C0 9.08 0.44 7.60667 1.32 6.46C2.22667 5.31333 3.34667 4.74 4.68 4.74C4.97333 4.74 5.3 4.77667 5.66 4.85C6.02 4.92333 6.39333 5.06 6.78 5.26C7.19333 5.48667 7.53333 5.64333 7.8 5.73C8.06667 5.81667 8.27333 5.86 8.42 5.86C8.59333 5.86 8.86 5.82 9.22 5.74C9.58 5.66 9.94 5.51333 10.3 5.3C10.6867 5.08667 11.02 4.92667 11.3 4.82C11.58 4.71333 11.8667 4.66 12.16 4.66C13.0933 4.66 13.9333 4.91333 14.68 5.42C15.08 5.68667 15.4867 6.08 15.9 6.6C15.2867 7.13333 14.84 7.6 14.56 8C14.04 8.74667 13.78 9.56 13.78 10.44C13.78 11.4133 14.0533 12.2933 14.6 13.08ZM10.58 3.74C10.1133 4.18 9.68667 4.46667 9.3 4.6C9.16667 4.64 8.99667 4.67667 8.79 4.71C8.58333 4.74333 8.34667 4.77333 8.08 4.8C8.09333 3.62667 8.4 2.61333 9 1.76C9.6 0.906667 10.5867 0.32 11.96 0C11.9867 0.133333 12.0067 0.226667 12.02 0.28V0.5C12.02 0.98 11.9067 1.52 11.68 2.12C11.44 2.70667 11.0733 3.24667 10.58 3.74Z" fill="#1B6758"/>
</svg>
